<?xml version="1.0" encoding="UTF-8" standalone="no"?>
<!-- Created with Inkscape (http://www.inkscape.org/) -->

<svg
   xmlns:dc="http://purl.org/dc/elements/1.1/"
   xmlns:cc="http://creativecommons.org/ns#"
   xmlns:rdf="http://www.w3.org/1999/02/22-rdf-syntax-ns#"
   xmlns:svg="http://www.w3.org/2000/svg"
   xmlns="http://www.w3.org/2000/svg"
   xmlns:sodipodi="http://sodipodi.sourceforge.net/DTD/sodipodi-0.dtd"
   xmlns:inkscape="http://www.inkscape.org/namespaces/inkscape"
   width="207.60812"
   height="74.694878"
   id="svg3661"
   version="1.1"
   inkscape:version="0.48.1 "
   sodipodi:docname="Plant &amp; Food Research logo.svg">
  <title
     id="title3840">Plant &amp; Food Research logo</title>
  <defs
     id="defs3663">
    <clipPath
       clipPathUnits="userSpaceOnUse"
       id="clipPath3085">
      <path
         inkscape:connector-curvature="0"
         d="m 43.756,656.402 180.504,0 0,76.353 -180.504,0 0,-76.353 z"
         id="path3087" />
    </clipPath>
  </defs>
  <sodipodi:namedview
     id="base"
     pagecolor="#ffffff"
     bordercolor="#666666"
     borderopacity="1.0"
     inkscape:pageopacity="0.0"
     inkscape:pageshadow="2"
     inkscape:zoom="3.959798"
     inkscape:cx="50.505978"
     inkscape:cy="9.8097138"
     inkscape:document-units="px"
     inkscape:current-layer="layer1"
     showgrid="false"
     fit-margin-left="5"
     fit-margin-right="5"
     fit-margin-top="5"
     fit-margin-bottom="5"
     inkscape:window-width="1366"
     inkscape:window-height="706"
     inkscape:window-x="-8"
     inkscape:window-y="-8"
     inkscape:window-maximized="1" />
  <metadata
     id="metadata3666">
    <rdf:RDF>
      <cc:Work
         rdf:about="">
        <dc:format>image/svg+xml</dc:format>
        <dc:type
           rdf:resource="http://purl.org/dc/dcmitype/StillImage" />
        <dc:title>Plant &amp; Food Research logo</dc:title>
      </cc:Work>
    </rdf:RDF>
  </metadata>
  <g
     inkscape:label="Layer 1"
     inkscape:groupmode="layer"
     id="layer1"
     transform="translate(-30.481649,-46.44335)">
    <g
       transform="matrix(1.25,0,0,-1.25,-35.518851,952.9371)"
       id="g3081">
      <g
         id="g3083"
         clip-path="url(#clipPath3085)">
        <g
           id="g3089"
           transform="translate(62.5327,696.8767)">
          <path
             inkscape:connector-curvature="0"
             d="m 0,0 c -0.109,0.218 -0.252,0.398 -0.429,0.542 -0.177,0.143 -0.385,0.248 -0.624,0.317 -0.238,0.067 -0.48,0.102 -0.725,0.102 l -1.431,0 0,-3.434 1.431,0 c 0.245,0 0.483,0.034 0.715,0.102 0.232,0.068 0.44,0.173 0.623,0.317 0.184,0.143 0.331,0.32 0.44,0.532 0.109,0.211 0.164,0.466 0.164,0.765 C 0.164,-0.47 0.109,-0.218 0,0 m 1.758,-9.934 -3.802,5.437 -1.165,0 0,-5.437 -2.514,0 0,13.041 4.354,0 c 0.504,0 1.001,-0.082 1.492,-0.245 C 0.613,2.698 1.049,2.456 1.431,2.136 1.812,1.816 2.119,1.417 2.351,0.94 2.582,0.463 2.698,-0.082 2.698,-0.695 2.698,-1.512 2.49,-2.205 2.075,-2.769 1.659,-3.335 1.151,-3.747 0.552,-4.006 l 4.313,-5.928 -3.107,0 z"
             style="fill:#54534a;fill-opacity:1;fill-rule:nonzero;stroke:none"
             id="path3091" />
        </g>
        <g
           id="g3093"
           transform="translate(67.929,686.9429)">
          <path
             inkscape:connector-curvature="0"
             d="m 0,0 0,13.041 7.276,0 0,-2.147 -4.721,0 0,-3.27 3.924,0 0,-2.167 -3.924,0 0,-3.311 5.376,0 L 7.931,0 0,0 z"
             style="fill:#54534a;fill-opacity:1;fill-rule:nonzero;stroke:none"
             id="path3095" />
        </g>
        <g
           id="g3097"
           transform="translate(84.056,687.8931)">
          <path
             inkscape:connector-curvature="0"
             d="m 0,0 c -0.777,-0.729 -1.928,-1.094 -3.454,-1.094 -0.723,0 -1.394,0.09 -2.014,0.266 -0.62,0.177 -1.107,0.382 -1.461,0.613 L -7.195,2.3 c 0.504,-0.368 1.073,-0.665 1.707,-0.889 0.634,-0.225 1.291,-0.337 1.972,-0.337 0.641,0 1.152,0.146 1.533,0.439 0.381,0.293 0.572,0.684 0.572,1.175 0,0.491 -0.15,0.882 -0.449,1.175 -0.3,0.293 -0.797,0.542 -1.492,0.747 -2.412,0.708 -3.618,2.023 -3.618,3.944 0,0.491 0.092,0.961 0.276,1.411 0.184,0.449 0.453,0.845 0.807,1.185 0.354,0.341 0.797,0.61 1.329,0.808 0.531,0.197 1.144,0.296 1.839,0.296 0.695,0 1.312,-0.082 1.85,-0.245 0.539,-0.164 0.937,-0.327 1.196,-0.491 L -0.164,9.413 c -0.245,0.15 -0.6,0.307 -1.063,0.47 -0.463,0.164 -0.933,0.245 -1.41,0.245 -0.613,0 -1.076,-0.14 -1.39,-0.419 -0.313,-0.279 -0.47,-0.616 -0.47,-1.012 0,-0.395 0.15,-0.715 0.45,-0.961 C -3.748,7.491 -3.298,7.273 -2.698,7.083 -2.112,6.892 -1.581,6.677 -1.104,6.439 -0.627,6.2 -0.222,5.914 0.112,5.581 0.446,5.246 0.705,4.858 0.889,4.415 1.073,3.972 1.165,3.465 1.165,2.892 1.165,1.693 0.777,0.729 0,0"
             style="fill:#54534a;fill-opacity:1;fill-rule:nonzero;stroke:none"
             id="path3099" />
        </g>
        <g
           id="g3101"
           transform="translate(87.1421,686.9429)">
          <path
             inkscape:connector-curvature="0"
             d="m 0,0 0,13.041 7.277,0 0,-2.147 -4.722,0 0,-3.27 3.924,0 0,-2.167 -3.924,0 0,-3.311 5.376,0 L 7.931,0 0,0 z"
             style="fill:#54534a;fill-opacity:1;fill-rule:nonzero;stroke:none"
             id="path3103" />
        </g>
        <g
           id="g3105"
           transform="translate(102.1245,694.9144)">
          <path
             inkscape:connector-curvature="0"
             d="M 0,0 C -0.068,0.19 -0.147,0.412 -0.235,0.664 -0.324,0.916 -0.402,1.166 -0.47,1.41 l -0.041,0 C -0.58,1.166 -0.658,0.916 -0.746,0.664 -0.835,0.412 -0.913,0.19 -0.981,0 l -1.084,-2.8 3.148,0 L 0,0 z m 3.066,-7.971 -1.247,3.147 -4.599,0 -1.247,-3.147 -2.473,0 5.355,13.183 1.452,0 5.334,-13.183 -2.575,0 z"
             style="fill:#54534a;fill-opacity:1;fill-rule:nonzero;stroke:none"
             id="path3107" />
        </g>
        <g
           id="g3109"
           transform="translate(114.9809,696.8767)">
          <path
             inkscape:connector-curvature="0"
             d="m 0,0 c -0.109,0.218 -0.252,0.398 -0.429,0.542 -0.177,0.143 -0.386,0.248 -0.624,0.317 -0.238,0.067 -0.48,0.102 -0.725,0.102 l -1.431,0 0,-3.434 1.431,0 c 0.245,0 0.483,0.034 0.715,0.102 0.232,0.068 0.44,0.173 0.623,0.317 0.184,0.143 0.331,0.32 0.44,0.532 0.109,0.211 0.164,0.466 0.164,0.765 C 0.164,-0.47 0.109,-0.218 0,0 m 1.758,-9.934 -3.802,5.437 -1.165,0 0,-5.437 -2.514,0 0,13.041 4.354,0 c 0.504,0 1.001,-0.082 1.492,-0.245 C 0.613,2.698 1.049,2.456 1.431,2.136 1.812,1.816 2.119,1.417 2.351,0.94 2.582,0.463 2.699,-0.082 2.699,-0.695 2.699,-1.512 2.49,-2.205 2.075,-2.769 1.659,-3.335 1.151,-3.747 0.552,-4.006 l 4.312,-5.928 -3.106,0 z"
             style="fill:#54534a;fill-opacity:1;fill-rule:nonzero;stroke:none"
             id="path3111" />
        </g>
        <g
           id="g3113"
           transform="translate(129.5141,697.1016)">
          <path
             inkscape:connector-curvature="0"
             d="m 0,0 c -0.314,0.191 -0.736,0.368 -1.267,0.531 -0.532,0.164 -1.104,0.246 -1.717,0.246 -0.6,0 -1.179,-0.099 -1.738,-0.297 -0.559,-0.197 -1.052,-0.484 -1.482,-0.858 -0.429,-0.375 -0.773,-0.842 -1.032,-1.401 -0.259,-0.558 -0.388,-1.192 -0.388,-1.9 0,-0.709 0.129,-1.339 0.388,-1.891 0.259,-0.552 0.603,-1.019 1.032,-1.4 0.43,-0.382 0.93,-0.672 1.503,-0.869 0.572,-0.197 1.171,-0.296 1.799,-0.296 0.654,0 1.229,0.058 1.727,0.173 0.497,0.116 0.93,0.276 1.298,0.481 L -0.102,-9.75 c -0.382,-0.191 -0.818,-0.33 -1.308,-0.419 -0.491,-0.088 -1.111,-0.133 -1.86,-0.133 -0.832,0 -1.66,0.14 -2.484,0.419 -0.825,0.28 -1.567,0.698 -2.228,1.257 -0.661,0.559 -1.199,1.254 -1.615,2.085 -0.416,0.831 -0.623,1.799 -0.623,2.902 0,1.105 0.207,2.071 0.623,2.903 0.416,0.831 0.957,1.53 1.625,2.095 0.668,0.565 1.414,0.988 2.239,1.268 0.824,0.279 1.645,0.418 2.463,0.418 0.858,0 1.597,-0.078 2.217,-0.234 C -0.433,2.654 0.074,2.459 0.47,2.228 L 0,0 z"
             style="fill:#54534a;fill-opacity:1;fill-rule:nonzero;stroke:none"
             id="path3115" />
        </g>
        <g
           id="g3117"
           transform="translate(140.367,686.9429)">
          <path
             inkscape:connector-curvature="0"
             d="m 0,0 0,5.437 -5.886,0 0,-5.437 -2.576,0 0,13.041 2.576,0 0,-5.397 5.886,0 0,5.397 2.576,0 L 2.576,0 0,0 z"
             style="fill:#54534a;fill-opacity:1;fill-rule:nonzero;stroke:none"
             id="path3119" />
        </g>
        <g
           id="g3121"
           transform="translate(59.2021,676.1205)">
          <path
             inkscape:connector-curvature="0"
             d="m 0,0 c -0.059,0.12 -0.139,0.221 -0.24,0.302 -0.1,0.081 -0.216,0.144 -0.348,0.189 -0.131,0.045 -0.27,0.067 -0.415,0.067 l -0.823,0 0,-1.93 0.839,0 c 0.146,0 0.283,0.02 0.412,0.062 0.128,0.042 0.242,0.105 0.34,0.189 0.098,0.084 0.176,0.186 0.235,0.307 0.058,0.12 0.088,0.256 0.088,0.407 C 0.088,-0.256 0.058,-0.12 0,0 m 0.793,-4.302 -1.78,2.451 -0.839,0 0,-2.451 -0.563,0 0,5.356 1.478,0 c 0.201,0 0.397,-0.032 0.588,-0.097 C -0.133,0.892 0.035,0.798 0.18,0.672 0.326,0.546 0.442,0.393 0.529,0.214 0.616,0.035 0.659,-0.169 0.659,-0.399 0.659,-0.751 0.56,-1.047 0.361,-1.285 0.162,-1.522 -0.088,-1.683 -0.391,-1.767 l 1.881,-2.535 -0.697,0 z"
             style="fill:#54534a;fill-opacity:1;fill-rule:nonzero;stroke:none"
             id="path3123" />
        </g>
        <g
           id="g3125"
           transform="translate(63.4203,675.4283)">
          <path
             inkscape:connector-curvature="0"
             d="m 0,0 c -0.045,0.123 -0.092,0.255 -0.143,0.394 -0.05,0.14 -0.098,0.283 -0.143,0.429 l -0.016,0 C -0.347,0.677 -0.395,0.534 -0.445,0.394 -0.495,0.255 -0.543,0.123 -0.588,0 l -0.646,-1.645 1.872,0 L 0,0 z m 1.444,-3.61 -0.613,1.503 -2.258,0 -0.605,-1.503 -0.562,0 2.199,5.431 0.21,0 2.2,-5.431 -0.571,0 z"
             style="fill:#54534a;fill-opacity:1;fill-rule:nonzero;stroke:none"
             id="path3127" />
        </g>
        <g
           id="g3129"
           transform="translate(70.8414,671.7341)">
          <path
             inkscape:connector-curvature="0"
             d="M 0,0 -2.619,2.981 C -2.837,3.232 -3.063,3.495 -3.295,3.77 -3.527,4.044 -3.736,4.296 -3.92,4.525 L -3.937,4.517 C -3.926,4.265 -3.92,4.016 -3.92,3.77 l 0,-0.731 0,-2.955 -0.554,0 0,5.356 0.394,0 2.485,-2.837 c 0.089,-0.101 0.186,-0.213 0.29,-0.336 0.103,-0.123 0.208,-0.248 0.314,-0.374 0.107,-0.126 0.212,-0.25 0.315,-0.373 0.104,-0.123 0.2,-0.241 0.29,-0.353 l 0.017,0.009 c -0.012,0.24 -0.017,0.478 -0.017,0.713 l 0,0.697 0,2.854 0.554,0 L 0.168,0 0,0 z"
             style="fill:#54534a;fill-opacity:1;fill-rule:nonzero;stroke:none"
             id="path3131" />
        </g>
        <g
           id="g3133"
           transform="translate(74.9549,671.7255)">
          <path
             inkscape:connector-curvature="0"
             d="m 0,0 c -0.375,0 -0.735,0.065 -1.079,0.193 -0.344,0.129 -0.649,0.312 -0.915,0.551 -0.266,0.237 -0.478,0.527 -0.638,0.868 -0.159,0.341 -0.239,0.728 -0.239,1.159 0,0.436 0.081,0.825 0.243,1.166 0.162,0.342 0.375,0.631 0.638,0.869 0.263,0.238 0.566,0.42 0.907,0.546 0.341,0.126 0.691,0.189 1.049,0.189 0.353,0 0.672,-0.037 0.957,-0.109 C 1.209,5.359 1.452,5.258 1.654,5.13 L 1.536,4.626 C 1.34,4.749 1.111,4.848 0.848,4.924 0.585,5 0.31,5.037 0.025,5.037 -0.277,5.037 -0.57,4.985 -0.852,4.882 -1.135,4.779 -1.382,4.627 -1.595,4.429 -1.808,4.23 -1.979,3.989 -2.107,3.707 -2.236,3.424 -2.3,3.107 -2.3,2.754 c 0,-0.353 0.064,-0.669 0.193,-0.949 0.128,-0.279 0.299,-0.517 0.512,-0.714 0.213,-0.196 0.46,-0.345 0.743,-0.449 0.282,-0.103 0.577,-0.155 0.885,-0.155 0.303,0 0.57,0.033 0.802,0.097 0.233,0.064 0.427,0.15 0.584,0.256 l 0,1.394 -1.419,0 0,0.461 1.956,0 0,-2.115 C 1.452,0.193 0.8,0 0,0"
             style="fill:#54534a;fill-opacity:1;fill-rule:nonzero;stroke:none"
             id="path3135" />
        </g>
        <g
           id="g3137"
           transform="translate(80.3528,675.4283)">
          <path
             inkscape:connector-curvature="0"
             d="m 0,0 c -0.045,0.123 -0.092,0.255 -0.143,0.394 -0.05,0.14 -0.098,0.283 -0.142,0.429 l -0.017,0 C -0.347,0.677 -0.395,0.534 -0.445,0.394 -0.495,0.255 -0.543,0.123 -0.588,0 l -0.646,-1.645 1.872,0 L 0,0 z m 1.444,-3.61 -0.613,1.503 -2.258,0 -0.605,-1.503 -0.562,0 2.199,5.431 0.21,0 2.2,-5.431 -0.571,0 z"
             style="fill:#54534a;fill-opacity:1;fill-rule:nonzero;stroke:none"
             id="path3139" />
        </g>
        <g
           id="g3141"
           transform="translate(86.9346,671.8182)">
          <path
             inkscape:connector-curvature="0"
             d="m 0,0 0,2.452 -3.073,0 0,-2.452 -0.562,0 0,5.356 0.562,0 0,-2.417 3.073,0 0,2.417 0.562,0 L 0.562,0 0,0 z"
             style="fill:#54534a;fill-opacity:1;fill-rule:nonzero;stroke:none"
             id="path3143" />
        </g>
        <g
           id="g3145"
           transform="translate(91.0227,675.4283)">
          <path
             inkscape:connector-curvature="0"
             d="m 0,0 c -0.045,0.123 -0.092,0.255 -0.143,0.394 -0.05,0.14 -0.098,0.283 -0.142,0.429 l -0.017,0 C -0.347,0.677 -0.395,0.534 -0.445,0.394 -0.495,0.255 -0.543,0.123 -0.588,0 l -0.646,-1.645 1.872,0 L 0,0 z m 1.444,-3.61 -0.613,1.503 -2.258,0 -0.605,-1.503 -0.562,0 2.199,5.431 0.21,0 2.2,-5.431 -0.571,0 z"
             style="fill:#54534a;fill-opacity:1;fill-rule:nonzero;stroke:none"
             id="path3147" />
        </g>
        <g
           id="g3149"
           transform="translate(97.9908,672.8591)">
          <path
             inkscape:connector-curvature="0"
             d="m 0,0 c -0.101,-0.24 -0.243,-0.445 -0.427,-0.612 -0.185,-0.169 -0.405,-0.298 -0.662,-0.387 -0.257,-0.09 -0.539,-0.135 -0.846,-0.135 -0.313,0 -0.596,0.045 -0.851,0.135 -0.254,0.089 -0.473,0.218 -0.657,0.387 -0.185,0.167 -0.327,0.372 -0.428,0.612 -0.1,0.241 -0.15,0.513 -0.15,0.814 l 0,3.501 0.562,0 0,-3.45 c 0,-0.47 0.134,-0.837 0.403,-1.1 0.269,-0.263 0.646,-0.395 1.133,-0.395 0.487,0 0.865,0.132 1.134,0.395 0.268,0.263 0.403,0.63 0.403,1.1 l 0,3.45 0.537,0 0,-3.501 C 0.151,0.513 0.101,0.241 0,0"
             style="fill:#54534a;fill-opacity:1;fill-rule:nonzero;stroke:none"
             id="path3151" />
        </g>
        <g
           id="g3153"
           transform="translate(103.808,675.4283)">
          <path
             inkscape:connector-curvature="0"
             d="m 0,0 c -0.045,0.123 -0.092,0.255 -0.143,0.394 -0.05,0.14 -0.098,0.283 -0.143,0.429 l -0.016,0 C -0.347,0.677 -0.395,0.534 -0.445,0.394 -0.495,0.255 -0.543,0.123 -0.588,0 l -0.646,-1.645 1.872,0 L 0,0 z m 1.444,-3.61 -0.613,1.503 -2.258,0 -0.605,-1.503 -0.562,0 2.199,5.431 0.21,0 2.2,-5.431 -0.571,0 z"
             style="fill:#54534a;fill-opacity:1;fill-rule:nonzero;stroke:none"
             id="path3155" />
        </g>
        <g
           id="g3157"
           transform="translate(110.3898,671.8182)">
          <path
             inkscape:connector-curvature="0"
             d="m 0,0 0,2.452 -3.073,0 0,-2.452 -0.562,0 0,5.356 0.562,0 0,-2.417 3.073,0 0,2.417 0.562,0 L 0.562,0 0,0 z"
             style="fill:#54534a;fill-opacity:1;fill-rule:nonzero;stroke:none"
             id="path3159" />
        </g>
        <g
           id="g3161"
           transform="translate(116.2665,672.8591)">
          <path
             inkscape:connector-curvature="0"
             d="m 0,0 c -0.101,-0.24 -0.243,-0.445 -0.427,-0.612 -0.185,-0.169 -0.405,-0.298 -0.662,-0.387 -0.257,-0.09 -0.539,-0.135 -0.846,-0.135 -0.313,0 -0.596,0.045 -0.851,0.135 -0.254,0.089 -0.473,0.218 -0.657,0.387 -0.185,0.167 -0.327,0.372 -0.428,0.612 -0.1,0.241 -0.15,0.513 -0.15,0.814 l 0,3.501 0.562,0 0,-3.45 c 0,-0.47 0.134,-0.837 0.403,-1.1 0.269,-0.263 0.646,-0.395 1.133,-0.395 0.487,0 0.865,0.132 1.134,0.395 0.268,0.263 0.403,0.63 0.403,1.1 l 0,3.45 0.537,0 0,-3.501 C 0.151,0.513 0.101,0.241 0,0"
             style="fill:#54534a;fill-opacity:1;fill-rule:nonzero;stroke:none"
             id="path3163" />
        </g>
        <g
           id="g3165"
           transform="translate(122.9398,671.8182)">
          <path
             inkscape:connector-curvature="0"
             d="M 0,0 -0.223,2.779 C -0.24,3.008 -0.258,3.241 -0.274,3.475 -0.292,3.711 -0.306,3.943 -0.318,4.173 l -0.016,0 C -0.429,3.949 -0.537,3.709 -0.657,3.455 -0.777,3.199 -0.891,2.964 -0.996,2.745 l -1.35,-2.779 -0.21,0 -1.35,2.779 c -0.1,0.207 -0.209,0.437 -0.327,0.688 -0.117,0.253 -0.226,0.496 -0.327,0.731 l -0.016,0 C -4.587,3.935 -4.6,3.696 -4.614,3.45 -4.627,3.204 -4.643,2.98 -4.66,2.779 L -4.877,0 -5.39,0 l 0.428,5.356 0.369,0 1.467,-2.997 C -3.014,2.124 -2.897,1.878 -2.774,1.62 -2.651,1.363 -2.536,1.108 -2.43,0.856 l 0.017,0 c 0.1,0.247 0.209,0.496 0.327,0.747 0.116,0.252 0.237,0.504 0.36,0.756 l 1.459,2.997 0.36,0 L 0.538,0 0,0 z"
             style="fill:#54534a;fill-opacity:1;fill-rule:nonzero;stroke:none"
             id="path3167" />
        </g>
        <g
           id="g3169"
           transform="translate(126.8438,675.4283)">
          <path
             inkscape:connector-curvature="0"
             d="m 0,0 c -0.045,0.123 -0.093,0.255 -0.142,0.394 -0.051,0.14 -0.099,0.283 -0.143,0.429 l -0.017,0 C -0.347,0.677 -0.395,0.534 -0.445,0.394 -0.496,0.255 -0.543,0.123 -0.588,0 l -0.646,-1.645 1.872,0 L 0,0 z m 1.444,-3.61 -0.613,1.503 -2.258,0 -0.605,-1.503 -0.562,0 2.199,5.431 0.21,0 2.2,-5.431 -0.571,0 z"
             style="fill:#54534a;fill-opacity:1;fill-rule:nonzero;stroke:none"
             id="path3171" />
        </g>
        <g
           id="g3173"
           transform="translate(132.1786,676.1205)">
          <path
             inkscape:connector-curvature="0"
             d="m 0,0 c -0.058,0.12 -0.138,0.221 -0.239,0.302 -0.1,0.081 -0.217,0.144 -0.349,0.189 -0.131,0.045 -0.27,0.067 -0.415,0.067 l -0.823,0 0,-1.93 0.84,0 c 0.145,0 0.282,0.02 0.411,0.062 0.129,0.042 0.242,0.105 0.34,0.189 0.098,0.084 0.177,0.186 0.235,0.307 0.059,0.12 0.088,0.256 0.088,0.407 C 0.088,-0.256 0.059,-0.12 0,0 m 0.794,-4.302 -1.78,2.451 -0.84,0 0,-2.451 -0.563,0 0,5.356 1.478,0 c 0.201,0 0.398,-0.032 0.588,-0.097 C -0.133,0.892 0.035,0.798 0.181,0.672 0.326,0.546 0.442,0.393 0.529,0.214 0.616,0.035 0.659,-0.169 0.659,-0.399 0.659,-0.751 0.56,-1.047 0.361,-1.285 0.163,-1.522 -0.088,-1.683 -0.391,-1.767 l 1.881,-2.535 -0.696,0 z"
             style="fill:#54534a;fill-opacity:1;fill-rule:nonzero;stroke:none"
             id="path3175" />
        </g>
        <g
           id="g3177"
           transform="translate(136.3973,675.4283)">
          <path
             inkscape:connector-curvature="0"
             d="m 0,0 c -0.045,0.123 -0.093,0.255 -0.142,0.394 -0.051,0.14 -0.099,0.283 -0.143,0.429 l -0.017,0 C -0.347,0.677 -0.395,0.534 -0.445,0.394 -0.495,0.255 -0.543,0.123 -0.587,0 l -0.647,-1.645 1.872,0 L 0,0 z m 1.444,-3.61 -0.613,1.503 -2.258,0 -0.605,-1.503 -0.562,0 2.199,5.431 0.21,0 2.2,-5.431 -0.571,0 z"
             style="fill:#54534a;fill-opacity:1;fill-rule:nonzero;stroke:none"
             id="path3179" />
        </g>
        <g
           id="g3181"
           transform="translate(144.3974,671.8182)">
          <path
             inkscape:connector-curvature="0"
             d="m 0,0 -2.351,2.569 -0.008,0 0,-2.569 -0.562,0 0,5.356 0.562,0 0,-2.577 0.008,0 2.325,2.577 0.647,0 L -1.763,2.728 0.739,0 0,0 z"
             style="fill:#54534a;fill-opacity:1;fill-rule:nonzero;stroke:none"
             id="path3183" />
        </g>
        <g
           id="g3185"
           transform="translate(148.1919,675.4283)">
          <path
             inkscape:connector-curvature="0"
             d="m 0,0 c -0.045,0.123 -0.092,0.255 -0.142,0.394 -0.051,0.14 -0.099,0.283 -0.143,0.429 l -0.017,0 C -0.347,0.677 -0.395,0.534 -0.445,0.394 -0.495,0.255 -0.543,0.123 -0.587,0 l -0.647,-1.645 1.873,0 L 0,0 z m 1.444,-3.61 -0.613,1.503 -2.258,0 -0.605,-1.503 -0.562,0 2.199,5.431 0.211,0 2.199,-5.431 -0.571,0 z"
             style="fill:#54534a;fill-opacity:1;fill-rule:nonzero;stroke:none"
             id="path3187" />
        </g>
        <path
           inkscape:connector-curvature="0"
           d="m 151.222,677.174 0.562,0 0,-5.356 -0.562,0 0,5.356 z"
           style="fill:#54534a;fill-opacity:1;fill-rule:nonzero;stroke:none"
           id="path3189" />
        <g
           id="g3191"
           transform="translate(62.8204,717.1171)">
          <path
             inkscape:connector-curvature="0"
             d="m 0,0 c -0.143,0.293 -0.338,0.538 -0.583,0.736 -0.245,0.197 -0.528,0.35 -0.848,0.46 -0.32,0.109 -0.657,0.163 -1.012,0.163 l -2.207,0 0,-4.701 2.248,0 c 0.354,0 0.688,0.051 1.002,0.153 0.313,0.103 0.589,0.256 0.828,0.46 0.238,0.205 0.429,0.453 0.572,0.746 0.143,0.293 0.215,0.624 0.215,0.992 C 0.215,-0.623 0.143,-0.293 0,0 M 1.288,-2.463 C 1.076,-2.899 0.797,-3.27 0.449,-3.577 0.102,-3.884 -0.3,-4.116 -0.756,-4.272 -1.213,-4.429 -1.686,-4.507 -2.177,-4.507 l -2.473,0 0,-5.969 -1.37,0 0,13.041 3.802,0 c 0.491,0 0.968,-0.078 1.431,-0.235 C -0.324,2.173 0.085,1.942 0.439,1.635 0.793,1.328 1.076,0.957 1.288,0.521 1.499,0.085 1.604,-0.412 1.604,-0.971 1.604,-1.53 1.499,-2.027 1.288,-2.463"
             style="fill:#54534a;fill-opacity:1;fill-rule:nonzero;stroke:none"
             id="path3193" />
        </g>
        <g
           id="g3195"
           transform="translate(68.1036,706.335)">
          <path
             inkscape:connector-curvature="0"
             d="m 0,0 c -0.177,0.055 -0.363,0.136 -0.556,0.245 -0.194,0.109 -0.366,0.256 -0.519,0.44 -0.152,0.184 -0.28,0.412 -0.384,0.685 -0.104,0.272 -0.156,0.592 -0.156,0.96 l 0,12.53 1.308,0 0,-12.387 C -0.307,2.037 -0.187,1.679 0.051,1.4 0.289,1.121 0.565,0.947 0.879,0.879 L 0,0 z"
             style="fill:#54534a;fill-opacity:1;fill-rule:nonzero;stroke:none"
             id="path3197" />
        </g>
        <g
           id="g3199"
           transform="translate(75.6663,711.1791)">
          <path
             inkscape:connector-curvature="0"
             d="m 0,0 -2.187,-0.203 c -0.654,-0.068 -1.152,-0.261 -1.492,-0.58 -0.341,-0.318 -0.511,-0.728 -0.511,-1.229 0,-0.461 0.17,-0.844 0.511,-1.148 0.34,-0.305 0.776,-0.458 1.308,-0.458 0.3,0 0.589,0.054 0.869,0.163 0.279,0.108 0.531,0.264 0.756,0.467 0.225,0.203 0.405,0.454 0.542,0.752 C -0.068,-1.938 0,-1.606 0,-1.24 L 0,0 z m 1.615,-4.742 c -0.314,0.068 -0.624,0.238 -0.93,0.511 -0.307,0.272 -0.48,0.647 -0.521,1.124 -0.178,-0.531 -0.512,-0.937 -1.002,-1.216 -0.49,-0.279 -1.036,-0.419 -1.635,-0.419 -0.45,0 -0.856,0.071 -1.216,0.215 -0.362,0.143 -0.672,0.337 -0.931,0.582 -0.258,0.245 -0.459,0.532 -0.602,0.859 -0.144,0.327 -0.215,0.681 -0.215,1.062 0,0.45 0.082,0.845 0.245,1.186 0.164,0.34 0.385,0.63 0.665,0.869 0.279,0.238 0.599,0.426 0.96,0.562 0.361,0.136 0.739,0.225 1.135,0.266 L 0,1.084 0,1.962 C 0,2.535 -0.191,2.985 -0.572,3.311 -0.954,3.639 -1.492,3.802 -2.187,3.802 -2.651,3.802 -3.1,3.737 -3.536,3.608 -3.972,3.478 -4.34,3.311 -4.64,3.107 L -4.905,4.19 c 0.354,0.246 0.766,0.43 1.236,0.552 0.47,0.123 0.984,0.184 1.543,0.184 0.491,0 0.947,-0.068 1.37,-0.204 C -0.334,4.586 0.031,4.389 0.337,4.13 0.644,3.872 0.882,3.549 1.053,3.161 1.223,2.773 1.308,2.335 1.308,1.845 l 0,-4.223 c 0,-0.463 0.116,-0.817 0.348,-1.062 0.231,-0.244 0.497,-0.394 0.797,-0.448 L 1.615,-4.742 z"
             style="fill:#54534a;fill-opacity:1;fill-rule:nonzero;stroke:none"
             id="path3201" />
        </g>
        <g
           id="g3203"
           transform="translate(86.0906,706.6415)">
          <path
             inkscape:connector-curvature="0"
             d="M 0,0 0,6.112 C 0,6.766 -0.221,7.3 -0.662,7.716 -1.103,8.132 -1.731,8.339 -2.545,8.339 -3.36,8.339 -4.001,8.132 -4.469,7.716 -4.937,7.3 -5.171,6.766 -5.171,6.112 l 0,-6.112 -1.308,0 0,9.259 1.225,0 0,-1.39 0.021,0 c 0.15,0.436 0.467,0.811 0.951,1.124 0.483,0.314 1.168,0.471 2.054,0.471 0.504,0 0.971,-0.075 1.4,-0.225 C -0.399,9.089 -0.024,8.878 0.297,8.605 0.617,8.333 0.865,7.995 1.043,7.593 1.219,7.191 1.308,6.738 1.308,6.234 L 1.308,0 0,0 z"
             style="fill:#54534a;fill-opacity:1;fill-rule:nonzero;stroke:none"
             id="path3205" />
        </g>
        <g
           id="g3207"
           transform="translate(95.1859,714.838)">
          <path
             inkscape:connector-curvature="0"
             d="m 0,0 -3.148,0 0,-5.723 c 0,-0.545 0.136,-0.93 0.409,-1.155 0.272,-0.225 0.634,-0.337 1.083,-0.337 0.382,0 0.695,0.061 0.941,0.184 l -0.143,-1.063 c -0.123,-0.069 -0.276,-0.116 -0.46,-0.143 -0.184,-0.028 -0.372,-0.041 -0.563,-0.041 -0.708,0 -1.308,0.207 -1.798,0.623 -0.491,0.416 -0.736,1.025 -0.736,1.83 l 0,5.825 -1.84,0 0,1.063 1.84,0 0,2.003 1.267,0.674 0,-2.677 3.393,0 L 0,0 z"
             style="fill:#54534a;fill-opacity:1;fill-rule:nonzero;stroke:none"
             id="path3209" />
        </g>
        <g
           id="g3211"
           transform="translate(103.7018,714.8979)">
          <path
             inkscape:connector-curvature="0"
             d="m 0,0 c -0.268,0.277 -0.626,0.416 -1.073,0.416 -0.409,0 -0.74,-0.134 -0.993,-0.401 -0.253,-0.268 -0.38,-0.587 -0.38,-0.957 0,-0.311 0.1,-0.608 0.3,-0.89 0.199,-0.283 0.498,-0.623 0.898,-1.022 0.593,0.33 1.017,0.644 1.27,0.941 0.253,0.297 0.379,0.606 0.379,0.927 C 0.401,-0.606 0.268,-0.277 0,0 m -1.453,-3.906 c -0.457,-0.253 -0.832,-0.537 -1.124,-0.854 -0.292,-0.316 -0.438,-0.713 -0.438,-1.189 0,-0.234 0.049,-0.451 0.146,-0.65 0.097,-0.2 0.229,-0.375 0.394,-0.526 0.166,-0.151 0.365,-0.27 0.599,-0.358 0.233,-0.087 0.491,-0.131 0.774,-0.131 0.438,0 0.854,0.09 1.248,0.27 0.394,0.18 0.761,0.426 1.102,0.737 l -2.701,2.701 z m 4.366,-4.353 -1.052,1.051 c -0.408,-0.39 -0.863,-0.688 -1.364,-0.896 -0.502,-0.209 -1.05,-0.313 -1.643,-0.313 -0.428,0 -0.816,0.066 -1.161,0.197 -0.345,0.131 -0.64,0.309 -0.883,0.533 -0.244,0.224 -0.431,0.484 -0.562,0.781 -0.131,0.297 -0.197,0.606 -0.197,0.927 0,0.633 0.167,1.156 0.503,1.57 0.336,0.413 0.796,0.79 1.38,1.131 -0.438,0.438 -0.759,0.837 -0.963,1.197 -0.205,0.36 -0.307,0.73 -0.307,1.11 0,0.331 0.063,0.633 0.19,0.905 0.126,0.273 0.294,0.504 0.503,0.694 0.21,0.19 0.451,0.335 0.723,0.438 0.272,0.102 0.555,0.153 0.847,0.153 0.302,0 0.596,-0.049 0.883,-0.146 C 0.097,0.976 0.35,0.832 0.569,0.642 0.788,0.453 0.963,0.224 1.095,-0.044 1.227,-0.312 1.292,-0.616 1.292,-0.956 1.292,-1.433 1.139,-1.871 0.832,-2.27 0.526,-2.669 0.036,-3.064 -0.635,-3.453 l 2.467,-2.482 c 0.224,0.302 0.424,0.635 0.599,1 0.175,0.365 0.326,0.752 0.453,1.161 L 3.511,-4.417 C 3.249,-5.245 2.893,-5.956 2.446,-6.55 l 1.708,-1.709 -1.241,0 z"
             style="fill:#54534a;fill-opacity:1;fill-rule:nonzero;stroke:none"
             id="path3213" />
        </g>
        <g
           id="g3215"
           transform="translate(114.3631,718.4969)">
          <path
             inkscape:connector-curvature="0"
             d="m 0,0 0,-4.701 4.742,0 0,-1.186 -4.742,0 0,-5.968 -1.369,0 0,13.04 6.929,0 L 5.56,0 0,0 z"
             style="fill:#54534a;fill-opacity:1;fill-rule:nonzero;stroke:none"
             id="path3217" />
        </g>
        <g
           id="g3219"
           transform="translate(128.644,712.7328)">
          <path
             inkscape:connector-curvature="0"
             d="m 0,0 c -0.184,0.449 -0.437,0.838 -0.756,1.165 -0.321,0.327 -0.699,0.582 -1.135,0.767 -0.436,0.183 -0.9,0.275 -1.39,0.275 -0.49,0 -0.954,-0.092 -1.39,-0.275 C -5.107,1.747 -5.488,1.492 -5.816,1.165 -6.142,0.838 -6.398,0.449 -6.582,0 c -0.184,-0.45 -0.276,-0.947 -0.276,-1.492 0,-0.545 0.092,-1.043 0.276,-1.492 0.184,-0.45 0.44,-0.838 0.766,-1.165 0.328,-0.328 0.709,-0.58 1.145,-0.757 0.436,-0.177 0.9,-0.266 1.39,-0.266 0.49,0 0.954,0.089 1.39,0.266 0.436,0.177 0.814,0.429 1.135,0.757 0.319,0.327 0.572,0.715 0.756,1.165 0.184,0.449 0.276,0.947 0.276,1.492 C 0.276,-0.947 0.184,-0.45 0,0 M 1.216,-3.414 C 0.97,-4 0.629,-4.507 0.193,-4.936 -0.242,-5.366 -0.756,-5.7 -1.349,-5.938 c -0.593,-0.238 -1.237,-0.357 -1.932,-0.357 -0.695,0 -1.338,0.119 -1.931,0.357 -0.593,0.238 -1.108,0.572 -1.544,1.002 -0.436,0.429 -0.78,0.936 -1.032,1.522 -0.252,0.586 -0.378,1.234 -0.378,1.942 0,0.709 0.126,1.359 0.378,1.952 0.252,0.593 0.596,1.104 1.032,1.533 0.436,0.429 0.951,0.763 1.544,1.002 0.593,0.238 1.236,0.357 1.931,0.357 0.695,0 1.339,-0.119 1.932,-0.357 C -0.756,2.776 -0.242,2.442 0.193,2.013 0.629,1.584 0.97,1.073 1.216,0.48 1.461,-0.113 1.584,-0.763 1.584,-1.472 1.584,-2.18 1.461,-2.828 1.216,-3.414"
             style="fill:#54534a;fill-opacity:1;fill-rule:nonzero;stroke:none"
             id="path3221" />
        </g>
        <g
           id="g3223"
           transform="translate(139.9057,712.7328)">
          <path
             inkscape:connector-curvature="0"
             d="m 0,0 c -0.184,0.449 -0.437,0.838 -0.756,1.165 -0.321,0.327 -0.698,0.582 -1.135,0.767 -0.436,0.183 -0.898,0.275 -1.39,0.275 -0.49,0 -0.954,-0.092 -1.39,-0.275 C -5.106,1.747 -5.488,1.492 -5.815,1.165 -6.141,0.838 -6.398,0.449 -6.582,0 c -0.184,-0.45 -0.276,-0.947 -0.276,-1.492 0,-0.545 0.092,-1.043 0.276,-1.492 0.184,-0.45 0.441,-0.838 0.767,-1.165 0.327,-0.328 0.709,-0.58 1.144,-0.757 0.436,-0.177 0.9,-0.266 1.39,-0.266 0.492,0 0.954,0.089 1.39,0.266 0.437,0.177 0.814,0.429 1.135,0.757 0.319,0.327 0.572,0.715 0.756,1.165 0.184,0.449 0.276,0.947 0.276,1.492 C 0.276,-0.947 0.184,-0.45 0,0 M 1.216,-3.414 C 0.971,-4 0.63,-4.507 0.195,-4.936 -0.242,-5.366 -0.756,-5.7 -1.349,-5.938 c -0.593,-0.238 -1.237,-0.357 -1.932,-0.357 -0.694,0 -1.338,0.119 -1.931,0.357 -0.593,0.238 -1.107,0.572 -1.543,1.002 -0.436,0.429 -0.78,0.936 -1.033,1.522 -0.252,0.586 -0.378,1.234 -0.378,1.942 0,0.709 0.126,1.359 0.378,1.952 0.253,0.593 0.597,1.104 1.033,1.533 0.436,0.429 0.95,0.763 1.543,1.002 0.593,0.238 1.237,0.357 1.931,0.357 0.695,0 1.339,-0.119 1.932,-0.357 C -0.756,2.776 -0.242,2.442 0.195,2.013 0.63,1.584 0.971,1.073 1.216,0.48 1.461,-0.113 1.584,-0.763 1.584,-1.472 1.584,-2.18 1.461,-2.828 1.216,-3.414"
             style="fill:#54534a;fill-opacity:1;fill-rule:nonzero;stroke:none"
             id="path3225" />
        </g>
        <g
           id="g3227"
           transform="translate(150.4834,713.8568)">
          <path
             inkscape:connector-curvature="0"
             d="m 0,0 c -0.231,0.246 -0.566,0.487 -1.002,0.726 -0.436,0.238 -0.974,0.357 -1.614,0.357 -0.505,0 -0.971,-0.091 -1.4,-0.275 -0.43,-0.185 -0.804,-0.44 -1.125,-0.767 -0.32,-0.327 -0.572,-0.715 -0.756,-1.165 -0.184,-0.45 -0.276,-0.947 -0.276,-1.492 0,-0.545 0.092,-1.043 0.276,-1.492 0.184,-0.45 0.436,-0.838 0.756,-1.165 0.321,-0.328 0.695,-0.58 1.125,-0.757 0.429,-0.177 0.895,-0.266 1.4,-0.266 0.613,0 1.144,0.127 1.594,0.379 0.45,0.252 0.791,0.534 1.022,0.848 L 0,0 z m 0.061,-7.215 0,1.022 -0.02,0 c -0.232,-0.314 -0.59,-0.597 -1.073,-0.849 -0.484,-0.252 -1.094,-0.377 -1.83,-0.377 -0.586,0 -1.154,0.109 -1.706,0.326 -0.552,0.218 -1.043,0.535 -1.472,0.951 -0.429,0.415 -0.777,0.92 -1.042,1.512 -0.266,0.593 -0.399,1.271 -0.399,2.034 0,0.709 0.119,1.359 0.358,1.952 0.238,0.593 0.569,1.104 0.991,1.533 0.422,0.429 0.923,0.763 1.502,1.002 0.579,0.238 1.21,0.357 1.891,0.357 0.599,0 1.148,-0.098 1.645,-0.296 C -0.596,1.754 -0.231,1.533 0,1.288 l 0,6.05 1.308,0 0,-14.553 -1.247,0 z"
             style="fill:#54534a;fill-opacity:1;fill-rule:nonzero;stroke:none"
             id="path3229" />
        </g>
        <g
           id="g3231"
           transform="translate(159.2434,691.1539)">
          <path
             inkscape:connector-curvature="0"
             d="m 0,0 c 0,14.161 11.48,25.641 25.641,25.641 7.935,0 15.027,-3.606 19.73,-9.267 1.202,1.63 1.508,2.677 1.5,3.322 -5.041,5.451 -12.25,8.867 -20.26,8.867 -15.238,0 -27.592,-12.354 -27.592,-27.593 0,-6.284 2.104,-12.074 5.643,-16.713 l 0.485,0.335 C 1.916,-11.119 0,-5.784 0,0"
             style="fill:#8cc63f;fill-opacity:1;fill-rule:nonzero;stroke:none"
             id="path3233" />
        </g>
        <g
           id="g3235"
           transform="translate(195.1521,687.5126)">
          <path
             inkscape:connector-curvature="0"
             d="M 0,0 C 0.356,0.391 0.734,0.776 1.142,1.154 7.253,6.818 11.371,13.305 11.411,13.37 l 0.154,-0.064 C 11.536,13.167 10.74,9.772 1.71,-0.196 1.599,-0.319 1.501,-0.446 1.394,-0.571 6.369,-2.569 9.721,-3.49 11.84,-3.851 c 0.558,0.81 1.113,1.68 1.661,2.623 C 18.96,8.171 14.255,18.364 12.713,21.22 12.735,19.68 10.984,15.846 -0.633,7.202 -2.84,5.559 -4.354,3.765 -5.368,1.935 -4.179,1.66 -2.958,1.266 -1.709,0.727 -1.121,0.471 -0.552,0.23 0,0"
             style="fill:#5d9732;fill-opacity:1;fill-rule:nonzero;stroke:none"
             id="path3237" />
        </g>
        <g
           id="g3239"
           transform="translate(171.8556,674.8281)">
          <path
             inkscape:connector-curvature="0"
             d="m 0,0 c 0.22,0 0.442,-0.023 0.667,-0.071 0.754,-0.164 1.695,-0.624 2.889,-1.205 3.343,-1.63 8.396,-4.092 16.783,-4.113 l 0.051,0 c 10.803,0 17.363,9.292 18.995,11.908 C 39.359,6.504 39.33,6.487 39.3,6.473 38.894,6.261 38.234,6.081 37.16,6.081 c -2.535,0 -7.371,1.006 -16.584,4.984 -2.429,1.046 -4.661,1.475 -6.686,1.475 -8.07,0 -12.886,-6.808 -13.934,-8.46 1.169,0.803 5.207,3.272 10.719,3.272 1.72,0 3.583,-0.24 5.549,-0.847 7.959,-2.46 15.638,-2.784 15.714,-2.787 L 31.959,3.554 C 31.902,3.534 31.275,3.345 29.576,3.345 27.254,3.345 22.934,3.7 15.34,5.337 13.825,5.662 12.368,5.8 10.989,5.8 3.489,5.8 -1.779,1.736 -1.841,1.687 l -4.527,-3.118 1.703,-1.59 C -4.299,-2.524 -2.321,0 0,0"
             style="fill:#8cc63f;fill-opacity:1;fill-rule:nonzero;stroke:none"
             id="path3241" />
        </g>
        <g
           id="g3243"
           transform="translate(213.1079,674.4053)">
          <path
             inkscape:connector-curvature="0"
             d="m 0,0 -0.374,0 0,-0.703 0.374,0 c 0.223,0 0.38,0.146 0.38,0.349 C 0.38,-0.152 0.223,0 0,0 m 0.391,-1.762 -0.462,0.821 -0.303,0 0,-0.821 -0.279,0 0,2.011 0.684,0 c 0.349,0 0.633,-0.264 0.633,-0.603 0,-0.293 -0.183,-0.476 -0.43,-0.551 l 0.481,-0.857 -0.324,0 z m -0.446,2.568 c -0.852,0 -1.542,-0.703 -1.542,-1.565 0,-0.862 0.69,-1.565 1.542,-1.565 0.851,0 1.544,0.703 1.544,1.565 0,0.862 -0.693,1.565 -1.544,1.565 m 0,-3.4 c -1.014,0 -1.835,0.821 -1.835,1.835 0,1.013 0.821,1.834 1.835,1.834 1.013,0 1.834,-0.821 1.834,-1.834 0,-1.014 -0.821,-1.835 -1.834,-1.835"
             style="fill:#54534a;fill-opacity:1;fill-rule:nonzero;stroke:none"
             id="path3245" />
        </g>
      </g>
    </g>
  </g>
</svg>
